<?xml version="1.0" encoding="UTF-8"?>
<!DOCTYPE svg PUBLIC "-//W3C//DTD SVG 1.1//EN" "http://www.w3.org/Graphics/SVG/1.1/DTD/svg11.dtd">
<svg xmlns="http://www.w3.org/2000/svg" version="1.1" width="605px" height="412px" style="shape-rendering:geometricPrecision; text-rendering:geometricPrecision; image-rendering:optimizeQuality; fill-rule:evenodd; clip-rule:evenodd" xmlns:xlink="http://www.w3.org/1999/xlink">
<g><path style="opacity:0.635" fill="#848484" d="M 311.5,22.5 C 309.097,22.448 306.764,22.7814 304.5,23.5C 305.312,22.0069 306.645,21.3402 308.5,21.5C 309.726,21.5195 310.726,21.8529 311.5,22.5 Z"/></g>
<g><path style="opacity:1" fill="#141414" d="M 192.5,22.5 C 196.37,23.2633 199.37,25.2633 201.5,28.5C 201.427,30.0269 202.094,31.0269 203.5,31.5C 203.41,34.1522 204.076,36.4855 205.5,38.5C 207.704,53.2698 202.371,64.7698 189.5,73C 172.399,81.9404 165.066,76.607 167.5,57C 167.767,52.4882 168.101,47.9882 168.5,43.5C 169.972,39.0808 170.638,34.4141 170.5,29.5C 171.906,29.0269 172.573,28.0269 172.5,26.5C 174.027,26.573 175.027,25.9063 175.5,24.5C 181.045,22.9785 186.712,22.3118 192.5,22.5 Z M 182.5,37.5 C 184.5,37.5 186.5,37.5 188.5,37.5C 189.167,38.8333 190.167,39.8333 191.5,40.5C 193.541,45.1332 193.208,49.7999 190.5,54.5C 188.167,56.1667 186.167,58.1667 184.5,60.5C 183.5,60.5 182.5,60.5 181.5,60.5C 181.354,52.8044 181.687,45.1377 182.5,37.5 Z"/></g>
<g><path style="opacity:0.808" fill="#848484" d="M 231.5,23.5 C 226.167,23.5 220.833,23.5 215.5,23.5C 220.846,20.9619 226.179,20.9619 231.5,23.5 Z"/></g>
<g><path style="opacity:1" fill="#131313" d="M 268.5,22.5 C 268.539,23.5832 268.873,24.5832 269.5,25.5C 270.257,26.7733 270.923,26.7733 271.5,25.5C 272.209,24.596 273.209,24.2627 274.5,24.5C 280.797,23.6803 287.131,23.347 293.5,23.5C 294.492,23.3284 295.158,23.6618 295.5,24.5C 295.5,26.5 295.5,28.5 295.5,30.5C 294.594,31.9649 293.261,32.9649 291.5,33.5C 291.167,34.5 290.833,35.5 290.5,36.5C 289.872,43.8613 289.205,51.1946 288.5,58.5C 287.532,60.6074 287.198,62.9407 287.5,65.5C 288.833,65.5 290.167,65.5 291.5,65.5C 291.833,66.5 292.5,67.1667 293.5,67.5C 295.074,70.4304 294.408,72.9304 291.5,75C 283.787,78.7973 275.953,79.2973 268,76.5C 267.22,74.6131 267.387,72.9464 268.5,71.5C 269.833,70.8333 270.833,69.8333 271.5,68.5C 271.842,67.6618 272.508,67.3284 273.5,67.5C 275.176,66.8166 275.843,65.4832 275.5,63.5C 275.502,57.477 275.835,51.477 276.5,45.5C 277.482,42.0381 277.815,38.3714 277.5,34.5C 275.5,34.5 273.5,34.5 271.5,34.5C 270.377,33.2426 269.711,33.5759 269.5,35.5C 269.08,40.5287 267.746,45.1953 265.5,49.5C 264.069,50.7804 263.402,52.4471 263.5,54.5C 262.55,62.7292 259.217,69.7292 253.5,75.5C 251.5,75.5 249.5,75.5 247.5,75.5C 244.611,72.7442 242.444,69.4109 241,65.5C 238.047,57.3561 235.881,49.0228 234.5,40.5C 234.82,37.1016 234.487,33.7683 233.5,30.5C 232.893,30.6236 232.56,30.9569 232.5,31.5C 231.486,32.6737 230.153,33.3404 228.5,33.5C 226.537,40.4238 225.87,47.7572 226.5,55.5C 226.5,56.1667 226.5,56.8333 226.5,57.5C 225.527,59.9479 225.194,62.6146 225.5,65.5C 226.833,65.5 228.167,65.5 229.5,65.5C 233.827,69.7125 233.16,73.2125 227.5,76C 220.566,78.7183 213.566,79.0517 206.5,77C 205.093,74.2152 205.426,71.7152 207.5,69.5C 209.027,69.573 210.027,68.9063 210.5,67.5C 212.235,64.8371 213.235,61.8371 213.5,58.5C 215.088,50.723 215.754,42.723 215.5,34.5C 213.5,34.5 211.5,34.5 209.5,34.5C 207.832,32.5214 207.166,30.188 207.5,27.5C 207.5,26.8333 207.833,26.5 208.5,26.5C 210.027,26.573 211.027,25.9063 211.5,24.5C 212.568,23.5655 213.901,23.2322 215.5,23.5C 220.833,23.5 226.167,23.5 231.5,23.5C 232.609,23.5569 233.609,23.8902 234.5,24.5C 236.479,22.8325 238.812,22.1658 241.5,22.5C 241.738,24.4044 242.738,25.7377 244.5,26.5C 244.5,26.8333 244.5,27.1667 244.5,27.5C 244.259,29.8984 244.926,31.8984 246.5,33.5C 247.232,39.0937 248.565,44.4271 250.5,49.5C 250.393,51.3786 250.893,51.7119 252,50.5C 253.549,47.6883 254.382,44.6883 254.5,41.5C 254.5,41.1667 254.5,40.8333 254.5,40.5C 256.213,39.3646 256.88,37.698 256.5,35.5C 256.935,32.8427 257.935,30.5093 259.5,28.5C 260.906,28.0269 261.573,27.0269 261.5,25.5C 262.833,24.8333 263.833,23.8333 264.5,22.5C 265.833,21.1667 267.167,21.1667 268.5,22.5 Z"/></g>
<g><path style="opacity:0.8" fill="#818181" d="M 293.5,23.5 C 287.131,23.347 280.797,23.6803 274.5,24.5C 280.746,21.3974 287.079,21.0641 293.5,23.5 Z"/></g>
<g><path style="opacity:1" fill="#111111" d="M 336.5,25.5 C 336.259,27.8984 336.926,29.8984 338.5,31.5C 341.086,41.3963 341.086,51.3963 338.5,61.5C 337.232,63.9052 336.565,66.5718 336.5,69.5C 336.34,71.153 335.674,72.4863 334.5,73.5C 333.167,74.1667 332.167,75.1667 331.5,76.5C 330.054,77.6129 328.387,77.7796 326.5,77C 324.04,75.5422 321.873,73.7089 320,71.5C 317.335,66.3312 315.168,60.9979 313.5,55.5C 313.291,54.0783 312.791,52.745 312,51.5C 311.502,54.8168 311.335,58.1501 311.5,61.5C 311.917,65.8171 311.25,69.8171 309.5,73.5C 308.5,73.8333 307.833,74.5 307.5,75.5C 305.801,75.6602 304.134,75.4935 302.5,75C 301.922,73.583 300.922,72.7496 299.5,72.5C 296.083,60.125 296.083,47.7917 299.5,35.5C 300.924,33.4855 301.59,31.1522 301.5,28.5C 301.328,27.5084 301.662,26.8417 302.5,26.5C 303.906,26.0269 304.573,25.0269 304.5,23.5C 306.764,22.7814 309.097,22.448 311.5,22.5C 311.833,23.5 312.5,24.1667 313.5,24.5C 313.738,26.4044 314.738,27.7377 316.5,28.5C 317.338,28.8417 317.672,29.5084 317.5,30.5C 317.12,32.698 317.787,34.3646 319.5,35.5C 319.12,37.698 319.787,39.3646 321.5,40.5C 321.5,40.8333 321.5,41.1667 321.5,41.5C 321.12,43.698 321.787,45.3646 323.5,46.5C 323.5,46.8333 323.5,47.1667 323.5,47.5C 323.39,50.0588 324.056,52.3921 325.5,54.5C 326.497,47.1968 326.831,39.8635 326.5,32.5C 326.993,30.1944 327.326,27.861 327.5,25.5C 328.833,24.8333 329.833,23.8333 330.5,22.5C 331.251,21.4265 332.251,21.2599 333.5,22C 335.426,22.4224 336.426,23.5891 336.5,25.5 Z"/></g>
<g><path style="opacity:0.004" fill="#c3c3c3" d="M 311.5,22.5 C 312.833,22.5 313.5,23.1667 313.5,24.5C 312.5,24.1667 311.833,23.5 311.5,22.5 Z"/></g>
<g><path style="opacity:0.814" fill="#858585" d="M 415.5,25.5 C 413.521,23.8325 411.188,23.1658 408.5,23.5C 411.623,20.8792 413.957,21.5458 415.5,25.5 Z"/></g>
<g><path style="opacity:0.924" fill="#747474" d="M 464.5,23.5 C 460.766,23.3227 457.099,23.6561 453.5,24.5C 456.937,21.1423 460.603,20.809 464.5,23.5 Z"/></g>
<g><path style="opacity:1" fill="#151515" d="M 154.5,25.5 C 154.427,27.0269 155.094,28.0269 156.5,28.5C 157.338,28.8417 157.672,29.5084 157.5,30.5C 157.259,32.8984 157.926,34.8984 159.5,36.5C 159.565,39.4282 160.232,42.0948 161.5,44.5C 164.382,54.0397 164.882,63.7064 163,73.5C 162.623,74.9423 161.79,75.9423 160.5,76.5C 158.167,76.5 155.833,76.5 153.5,76.5C 150.945,73.3731 149.945,69.7065 150.5,65.5C 150.5,63.8333 150.5,62.1667 150.5,60.5C 146.96,60.7526 143.627,61.4192 140.5,62.5C 140.452,66.8131 139.285,70.8131 137,74.5C 136.184,75.8228 135.017,76.4894 133.5,76.5C 131.784,76.3713 130.117,76.038 128.5,75.5C 127.778,75.0825 127.278,74.4158 127,73.5C 125.906,64.1821 126.74,55.1821 129.5,46.5C 131.277,43.4954 132.277,40.1621 132.5,36.5C 134.469,28.6984 139.302,23.6984 147,21.5C 150.059,21.9441 152.559,23.2774 154.5,25.5 Z M 142.5,43.5 C 143.738,41.7857 144.405,39.7857 144.5,37.5C 146.3,36.3948 147.467,37.0614 148,39.5C 148.61,42.8273 149.11,46.1606 149.5,49.5C 146.824,50.0081 144.157,50.1747 141.5,50C 142.423,47.9592 142.756,45.7925 142.5,43.5 Z"/></g>
<g><path style="opacity:0.902" fill="#838383" d="M 192.5,22.5 C 186.712,22.3118 181.045,22.9785 175.5,24.5C 180.935,21.5523 186.601,20.8856 192.5,22.5 Z"/></g>
<g><path style="opacity:0.388" fill="#a2a2a2" d="M 241.5,22.5 C 238.812,22.1658 236.479,22.8325 234.5,24.5C 234.414,23.5041 234.748,22.6708 235.5,22C 237.855,20.0234 239.855,20.19 241.5,22.5 Z"/></g>
<g><path style="opacity:1" fill="#131313" d="M 375.5,31.5 C 375.41,34.1522 376.076,36.4855 377.5,38.5C 381.127,49.4434 382.293,60.7767 381,72.5C 380.392,74.0664 379.558,75.3998 378.5,76.5C 376.167,76.5 373.833,76.5 371.5,76.5C 370.094,76.0269 369.427,75.0269 369.5,73.5C 368.8,69.2022 368.467,64.8689 368.5,60.5C 364.846,60.9422 361.179,61.2756 357.5,61.5C 356.908,64.1272 356.575,66.7938 356.5,69.5C 356.34,71.153 355.674,72.4863 354.5,73.5C 353.167,74.1667 352.167,75.1667 351.5,76.5C 347.498,77.7337 344.998,76.0671 344,71.5C 343.202,63.3004 344.035,55.3004 346.5,47.5C 348.163,45.5615 348.829,43.2282 348.5,40.5C 350.213,39.3646 350.88,37.698 350.5,35.5C 350.66,33.847 351.326,32.5137 352.5,31.5C 353.906,31.0269 354.573,30.0269 354.5,28.5C 356.5,27.1667 358.167,25.5 359.5,23.5C 367.51,20.1943 372.843,22.861 375.5,31.5 Z M 365.5,38.5 C 366.244,42.1185 366.577,45.7852 366.5,49.5C 365.209,49.2627 364.209,49.596 363.5,50.5C 362.167,50.5 360.833,50.5 359.5,50.5C 359.5,49.5 359.5,48.5 359.5,47.5C 359.953,43.3873 361.453,39.7207 364,36.5C 364.278,37.4158 364.778,38.0825 365.5,38.5 Z"/></g>
<g><path style="opacity:1" fill="#121212" d="M 408.5,23.5 C 411.188,23.1658 413.521,23.8325 415.5,25.5C 416.423,38.4701 416.756,51.4701 416.5,64.5C 417.791,64.7373 418.791,64.404 419.5,63.5C 425.001,61.6247 430.668,61.1247 436.5,62C 437.056,62.3826 437.389,62.8826 437.5,63.5C 437.5,65.5 437.5,67.5 437.5,69.5C 433.699,73.4004 429.033,75.7337 423.5,76.5C 418.195,77.1942 412.862,77.5276 407.5,77.5C 406.833,77.5 406.5,77.1667 406.5,76.5C 406.279,73.9327 405.612,71.5994 404.5,69.5C 402.032,58.2734 402.032,46.94 404.5,35.5C 405.913,32.7814 406.58,29.7814 406.5,26.5C 407.906,26.0269 408.573,25.0269 408.5,23.5 Z"/></g>
<g><path style="opacity:1" fill="#131313" d="M 464.5,23.5 C 465.492,23.3284 466.158,23.6618 466.5,24.5C 466.427,26.0269 467.094,27.0269 468.5,27.5C 468.427,29.0269 469.094,30.0269 470.5,30.5C 470.723,34.1621 471.723,37.4954 473.5,40.5C 476.714,51.2393 477.547,62.2393 476,73.5C 475.623,74.9423 474.79,75.9423 473.5,76.5C 470.763,76.5987 468.096,76.2653 465.5,75.5C 463.96,73.1617 463.294,70.4951 463.5,67.5C 463.5,65.1667 463.5,62.8333 463.5,60.5C 462.209,60.2627 461.209,60.596 460.5,61.5C 458.393,62.4682 456.059,62.8016 453.5,62.5C 453.266,66.7686 452.099,70.7686 450,74.5C 446.066,78.8404 442.733,78.5071 440,73.5C 439.502,70.5184 439.335,67.5184 439.5,64.5C 439.5,63.5 439.5,62.5 439.5,61.5C 439.754,55.9053 440.754,50.5719 442.5,45.5C 443.924,43.4855 444.59,41.1522 444.5,38.5C 444.935,35.8427 445.935,33.5093 447.5,31.5C 449.262,30.7377 450.262,29.4044 450.5,27.5C 451.833,26.8333 452.833,25.8333 453.5,24.5C 457.099,23.6561 460.766,23.3227 464.5,23.5 Z M 461.5,40.5 C 461.94,44.1785 461.273,47.5118 459.5,50.5C 459.167,50.5 458.833,50.5 458.5,50.5C 457.022,50.762 455.689,50.4287 454.5,49.5C 455.551,46.243 456.218,42.9097 456.5,39.5C 458.68,35.6164 460.347,35.9498 461.5,40.5 Z"/></g>
<g><path style="opacity:0.671" fill="#858585" d="M 241.5,22.5 C 243.262,23.2623 244.262,24.5956 244.5,26.5C 242.738,25.7377 241.738,24.4044 241.5,22.5 Z"/></g>
<g><path style="opacity:0.38" fill="#b2b2b2" d="M 264.5,22.5 C 263.833,23.8333 262.833,24.8333 261.5,25.5C 261.5,23.5 262.5,22.5 264.5,22.5 Z"/></g>
<g><path style="opacity:0.275" fill="#adadad" d="M 268.5,22.5 C 269.728,23.3065 270.728,24.3065 271.5,25.5C 270.923,26.7733 270.257,26.7733 269.5,25.5C 268.873,24.5832 268.539,23.5832 268.5,22.5 Z"/></g>
<g><path style="opacity:0.463" fill="#959595" d="M 330.5,22.5 C 329.833,23.8333 328.833,24.8333 327.5,25.5C 327.5,23.5 328.5,22.5 330.5,22.5 Z"/></g>
<g><path style="opacity:0.69" fill="#949494" d="M 175.5,24.5 C 175.027,25.9063 174.027,26.573 172.5,26.5C 172.973,25.0937 173.973,24.427 175.5,24.5 Z"/></g>
<g><path style="opacity:0.725" fill="#8b8b8b" d="M 211.5,24.5 C 211.027,25.9063 210.027,26.573 208.5,26.5C 208.973,25.0937 209.973,24.427 211.5,24.5 Z"/></g>
<g><path style="opacity:0.408" fill="#a1a1a1" d="M 304.5,23.5 C 304.573,25.0269 303.906,26.0269 302.5,26.5C 302.427,24.9731 303.094,23.9731 304.5,23.5 Z"/></g>
<g><path style="opacity:0.251" fill="#b6b6b6" d="M 408.5,23.5 C 408.573,25.0269 407.906,26.0269 406.5,26.5C 406.427,24.9731 407.094,23.9731 408.5,23.5 Z"/></g>
<g><path style="opacity:0.698" fill="#919191" d="M 466.5,24.5 C 467.906,24.9731 468.573,25.9731 468.5,27.5C 467.094,27.0269 466.427,26.0269 466.5,24.5 Z"/></g>
<g><path style="opacity:0.765" fill="#707070" d="M 313.5,24.5 C 315.262,25.2623 316.262,26.5956 316.5,28.5C 314.738,27.7377 313.738,26.4044 313.5,24.5 Z"/></g>
<g><path style="opacity:0.729" fill="#878787" d="M 359.5,23.5 C 358.167,25.5 356.5,27.1667 354.5,28.5C 355.167,25.8333 356.833,24.1667 359.5,23.5 Z"/></g>
<g><path style="opacity:0.506" fill="#a1a1a1" d="M 453.5,24.5 C 452.833,25.8333 451.833,26.8333 450.5,27.5C 450.5,25.5 451.5,24.5 453.5,24.5 Z"/></g>
<g><path style="opacity:0.42" fill="#a2a2a2" d="M 154.5,25.5 C 155.906,25.9731 156.573,26.9731 156.5,28.5C 155.094,28.0269 154.427,27.0269 154.5,25.5 Z"/></g>
<g><path style="opacity:0.29" fill="#b2b2b2" d="M 261.5,25.5 C 261.573,27.0269 260.906,28.0269 259.5,28.5C 259.427,26.9731 260.094,25.9731 261.5,25.5 Z"/></g>
<g><path style="opacity:0.812" fill="#808080" d="M 295.5,24.5 C 298.167,26.5 298.167,28.5 295.5,30.5C 295.5,28.5 295.5,26.5 295.5,24.5 Z"/></g>
<g><path style="opacity:0.545" fill="#848484" d="M 172.5,26.5 C 172.573,28.0269 171.906,29.0269 170.5,29.5C 170.427,27.9731 171.094,26.9731 172.5,26.5 Z"/></g>
<g><path style="opacity:0.678" fill="#828282" d="M 450.5,27.5 C 450.262,29.4044 449.262,30.7377 447.5,31.5C 447.738,29.5956 448.738,28.2623 450.5,27.5 Z"/></g>
<g><path style="opacity:0.365" fill="#989898" d="M 468.5,27.5 C 469.906,27.9731 470.573,28.9731 470.5,30.5C 469.094,30.0269 468.427,29.0269 468.5,27.5 Z"/></g>
<g><path style="opacity:0.302" fill="#b3b3b3" d="M 201.5,28.5 C 202.906,28.9731 203.573,29.9731 203.5,31.5C 202.094,31.0269 201.427,30.0269 201.5,28.5 Z"/></g>
<g><path style="opacity:0.812" fill="#808080" d="M 207.5,27.5 C 207.166,30.188 207.832,32.5214 209.5,34.5C 205.546,32.9567 204.879,30.6234 207.5,27.5 Z"/></g>
<g><path style="opacity:0.725" fill="#6e6e6e" d="M 336.5,25.5 C 338.074,27.1016 338.741,29.1016 338.5,31.5C 336.926,29.8984 336.259,27.8984 336.5,25.5 Z"/></g>
<g><path style="opacity:0.573" fill="#7b7b7b" d="M 354.5,28.5 C 354.573,30.0269 353.906,31.0269 352.5,31.5C 352.427,29.9731 353.094,28.9731 354.5,28.5 Z"/></g>
<g><path style="opacity:0.388" fill="#9d9d9d" d="M 327.5,25.5 C 327.326,27.861 326.993,30.1944 326.5,32.5C 326.167,32.5 325.833,32.5 325.5,32.5C 325.41,29.8478 326.076,27.5145 327.5,25.5 Z"/></g>
<g><path style="opacity:0.733" fill="#6f6f6f" d="M 244.5,27.5 C 246.074,29.1016 246.741,31.1016 246.5,33.5C 244.926,31.8984 244.259,29.8984 244.5,27.5 Z"/></g>
<g><path style="opacity:0.925" fill="#707070" d="M 317.5,30.5 C 318.537,31.9303 319.204,33.597 319.5,35.5C 317.787,34.3646 317.12,32.698 317.5,30.5 Z"/></g>
<g><path style="opacity:0.878" fill="#7d7d7d" d="M 470.5,30.5 C 472.277,33.5046 473.277,36.8379 473.5,40.5C 471.723,37.4954 470.723,34.1621 470.5,30.5 Z"/></g>
<g><path style="opacity:0.925" fill="#696969" d="M 203.5,31.5 C 204.924,33.5145 205.59,35.8478 205.5,38.5C 204.076,36.4855 203.41,34.1522 203.5,31.5 Z"/></g>
<g><path style="opacity:0.039" fill="#cacaca" d="M 271.5,34.5 C 270.833,34.8333 270.167,35.1667 269.5,35.5C 269.711,33.5759 270.377,33.2426 271.5,34.5 Z"/></g>
<g><path style="opacity:0.6" fill="#929292" d="M 301.5,28.5 C 301.59,31.1522 300.924,33.4855 299.5,35.5C 299.41,32.8478 300.076,30.5145 301.5,28.5 Z"/></g>
<g><path style="opacity:0.898" fill="#6b6b6b" d="M 375.5,31.5 C 376.924,33.5145 377.59,35.8478 377.5,38.5C 376.076,36.4855 375.41,34.1522 375.5,31.5 Z"/></g>
<g><path style="opacity:0.486" fill="#a6a6a6" d="M 406.5,26.5 C 406.58,29.7814 405.913,32.7814 404.5,35.5C 404.42,32.2186 405.087,29.2186 406.5,26.5 Z"/></g>
<g><path style="opacity:0.741" fill="#6f6f6f" d="M 157.5,30.5 C 159.074,32.1016 159.741,34.1016 159.5,36.5C 157.926,34.8984 157.259,32.8984 157.5,30.5 Z"/></g>
<g><path style="opacity:0.757" fill="#959595" d="M 246.5,33.5 C 248.749,38.4968 250.083,43.8302 250.5,49.5C 248.565,44.4271 247.232,39.0937 246.5,33.5 Z"/></g>
<g><path style="opacity:0.651" fill="#888888" d="M 415.5,25.5 C 416.268,26.2625 416.768,27.2625 417,28.5C 416.85,40.543 417.684,52.2097 419.5,63.5C 418.791,64.404 417.791,64.7373 416.5,64.5C 416.756,51.4701 416.423,38.4701 415.5,25.5 Z"/></g>
<g><path style="opacity:0.624" fill="#a8a8a8" d="M 188.5,37.5 C 190.5,37.5 191.5,38.5 191.5,40.5C 190.167,39.8333 189.167,38.8333 188.5,37.5 Z"/></g>
<g><path style="opacity:0.141" fill="#b7b7b7" d="M 232.5,31.5 C 232.56,30.9569 232.893,30.6236 233.5,30.5C 234.487,33.7683 234.82,37.1016 234.5,40.5C 233.833,37.5 233.167,34.5 232.5,31.5 Z"/></g>
<g><path style="opacity:0.847" fill="#838383" d="M 256.5,35.5 C 256.88,37.698 256.213,39.3646 254.5,40.5C 254.796,38.597 255.463,36.9303 256.5,35.5 Z"/></g>
<g><path style="opacity:0.384" fill="#979797" d="M 271.5,34.5 C 273.5,34.5 275.5,34.5 277.5,34.5C 277.815,38.3714 277.482,42.0381 276.5,45.5C 276.5,42.1667 276.5,38.8333 276.5,35.5C 274.585,35.7845 272.919,35.4511 271.5,34.5 Z"/></g>
<g><path style="opacity:0.804" fill="#919191" d="M 319.5,35.5 C 320.537,36.9303 321.204,38.597 321.5,40.5C 319.787,39.3646 319.12,37.698 319.5,35.5 Z"/></g>
<g><path style="opacity:0.957" fill="#737373" d="M 350.5,35.5 C 350.88,37.698 350.213,39.3646 348.5,40.5C 348.402,38.4471 349.069,36.7804 350.5,35.5 Z"/></g>
<g><path style="opacity:0.886" fill="#7b7b7b" d="M 132.5,36.5 C 132.277,40.1621 131.277,43.4954 129.5,46.5C 129.723,42.8379 130.723,39.5046 132.5,36.5 Z"/></g>
<g><path style="opacity:0.475" fill="#9f9f9f" d="M 144.5,37.5 C 144.405,39.7857 143.738,41.7857 142.5,43.5C 142.259,41.1016 142.926,39.1016 144.5,37.5 Z"/></g>
<g><path style="opacity:0.765" fill="#929292" d="M 444.5,38.5 C 444.59,41.1522 443.924,43.4855 442.5,45.5C 442.41,42.8478 443.076,40.5145 444.5,38.5 Z"/></g>
<g><path style="opacity:0.416" fill="#a3a3a3" d="M 170.5,29.5 C 170.638,34.4141 169.972,39.0808 168.5,43.5C 168.362,38.5859 169.028,33.9192 170.5,29.5 Z"/></g>
<g><path style="opacity:0.533" fill="#9b9b9b" d="M 159.5,36.5 C 161.04,38.8383 161.706,41.5049 161.5,44.5C 160.232,42.0948 159.565,39.4282 159.5,36.5 Z"/></g>
<g><path style="opacity:0.561" fill="#8b8b8b" d="M 228.5,33.5 C 227.936,40.9794 227.269,48.3127 226.5,55.5C 225.87,47.7572 226.537,40.4238 228.5,33.5 Z"/></g>
<g><path style="opacity:0.878" fill="#808080" d="M 254.5,41.5 C 254.382,44.6883 253.549,47.6883 252,50.5C 250.893,51.7119 250.393,51.3786 250.5,49.5C 252.025,46.9209 253.359,44.2542 254.5,41.5 Z"/></g>
<g><path style="opacity:0.875" fill="#7c7c7c" d="M 321.5,41.5 C 322.537,42.9303 323.204,44.597 323.5,46.5C 321.787,45.3646 321.12,43.698 321.5,41.5 Z"/></g>
<g><path style="opacity:0.867" fill="#848484" d="M 348.5,40.5 C 348.829,43.2282 348.163,45.5615 346.5,47.5C 346.721,44.9327 347.388,42.5994 348.5,40.5 Z"/></g>
<g><path style="opacity:0.067" fill="#d7d7d7" d="M 461.5,40.5 C 462.479,43.6248 462.813,46.9581 462.5,50.5C 461.5,50.5 460.5,50.5 459.5,50.5C 461.273,47.5118 461.94,44.1785 461.5,40.5 Z"/></g>
<g><path style="opacity:0.816" fill="#7e7e7e" d="M 209.5,34.5 C 211.5,34.5 213.5,34.5 215.5,34.5C 215.754,42.723 215.088,50.723 213.5,58.5C 213.68,50.8252 214.014,43.1585 214.5,35.5C 212.585,35.7845 210.919,35.4511 209.5,34.5 Z"/></g>
<g><path style="opacity:0.278" fill="#a3a3a3" d="M 365.5,38.5 C 366.222,38.9175 366.722,39.5842 367,40.5C 367.498,43.8168 367.665,47.1501 367.5,50.5C 366.167,50.5 364.833,50.5 363.5,50.5C 364.209,49.596 365.209,49.2627 366.5,49.5C 366.577,45.7852 366.244,42.1185 365.5,38.5 Z"/></g>
<g><path style="opacity:0.743" fill="#565656" d="M 325.5,32.5 C 325.833,32.5 326.167,32.5 326.5,32.5C 326.831,39.8635 326.497,47.1968 325.5,54.5C 324.056,52.3921 323.39,50.0588 323.5,47.5C 324.268,48.2625 324.768,49.2625 325,50.5C 325.167,49.3333 325.333,48.1667 325.5,47C 324.944,42.2259 324.944,37.3925 325.5,32.5 Z"/></g>
<g><path style="opacity:0.463" fill="#848484" d="M 359.5,47.5 C 359.5,48.5 359.5,49.5 359.5,50.5C 360.833,50.5 362.167,50.5 363.5,50.5C 362.081,51.4511 360.415,51.7845 358.5,51.5C 358.232,49.901 358.566,48.5676 359.5,47.5 Z"/></g>
<g><path style="opacity:0.659" fill="#858585" d="M 456.5,39.5 C 456.218,42.9097 455.551,46.243 454.5,49.5C 455.689,50.4287 457.022,50.762 458.5,50.5C 457.081,51.4511 455.415,51.7845 453.5,51.5C 453.755,47.1997 454.755,43.1997 456.5,39.5 Z"/></g>
<g><path style="opacity:0.278" fill="#a9a9a9" d="M 182.5,37.5 C 181.687,45.1377 181.354,52.8044 181.5,60.5C 180.346,54.013 180.179,47.3464 181,40.5C 181.232,39.2625 181.732,38.2625 182.5,37.5 Z"/></g>
<g><path style="opacity:0.4" fill="#a9a9a9" d="M 265.5,49.5 C 265.598,51.5529 264.931,53.2196 263.5,54.5C 263.402,52.4471 264.069,50.7804 265.5,49.5 Z"/></g>
<g><path style="opacity:0.639" fill="#828282" d="M 190.5,54.5 C 189.5,57.5 187.5,59.5 184.5,60.5C 186.167,58.1667 188.167,56.1667 190.5,54.5 Z"/></g>
<g><path style="opacity:0.251" fill="#b7b7b7" d="M 226.5,57.5 C 226.5,59.8333 226.5,62.1667 226.5,64.5C 227.791,64.2627 228.791,64.596 229.5,65.5C 228.167,65.5 226.833,65.5 225.5,65.5C 225.194,62.6146 225.527,59.9479 226.5,57.5 Z"/></g>
<g><path style="opacity:0.047" fill="#dadada" d="M 313.5,55.5 C 312.833,57.5 312.167,59.5 311.5,61.5C 311.335,58.1501 311.502,54.8168 312,51.5C 312.791,52.745 313.291,54.0783 313.5,55.5 Z"/></g>
<g><path style="opacity:0.267" fill="#b2b2b2" d="M 150.5,65.5 C 149.839,64.2825 149.172,62.9492 148.5,61.5C 145.916,62.3928 143.249,62.7261 140.5,62.5C 143.627,61.4192 146.96,60.7526 150.5,60.5C 150.5,62.1667 150.5,63.8333 150.5,65.5 Z"/></g>
<g><path style="opacity:0.267" fill="#b0b0b0" d="M 288.5,58.5 C 288.5,60.5 288.5,62.5 288.5,64.5C 289.791,64.2627 290.791,64.596 291.5,65.5C 290.167,65.5 288.833,65.5 287.5,65.5C 287.198,62.9407 287.532,60.6074 288.5,58.5 Z"/></g>
<g><path style="opacity:0.114" fill="#b4b4b4" d="M 338.5,61.5 C 338.706,64.4951 338.04,67.1617 336.5,69.5C 336.565,66.5718 337.232,63.9052 338.5,61.5 Z"/></g>
<g><path style="opacity:0.12" fill="#cdcdcd" d="M 460.5,61.5 C 461.209,60.596 462.209,60.2627 463.5,60.5C 463.5,62.8333 463.5,65.1667 463.5,67.5C 463.06,65.1561 462.06,63.1561 460.5,61.5 Z"/></g>
<g><path style="opacity:0.02" fill="#bdbdbd" d="M 291.5,65.5 C 292.833,65.5 293.5,66.1667 293.5,67.5C 292.5,67.1667 291.833,66.5 291.5,65.5 Z"/></g>
<g><path style="opacity:0.537" fill="#bababa" d="M 439.5,61.5 C 439.5,62.5 439.5,63.5 439.5,64.5C 438.833,66.1667 438.167,67.8333 437.5,69.5C 437.5,67.5 437.5,65.5 437.5,63.5C 438.167,62.8333 438.833,62.1667 439.5,61.5 Z"/></g>
<g><path style="opacity:0.573" fill="#a7a7a7" d="M 275.5,63.5 C 275.843,65.4832 275.176,66.8166 273.5,67.5C 273.989,66.0048 274.655,64.6715 275.5,63.5 Z"/></g>
<g><path style="opacity:0.247" fill="#a9a9a9" d="M 369.5,73.5 C 368.065,69.7449 367.065,65.7449 366.5,61.5C 363.916,62.3928 361.249,62.7261 358.5,62.5C 358.279,65.0673 357.612,67.4006 356.5,69.5C 356.575,66.7938 356.908,64.1272 357.5,61.5C 361.179,61.2756 364.846,60.9422 368.5,60.5C 368.467,64.8689 368.8,69.2022 369.5,73.5 Z"/></g>
<g><path style="opacity:0.682" fill="#999999" d="M 210.5,67.5 C 210.027,68.9063 209.027,69.573 207.5,69.5C 207.973,68.0937 208.973,67.427 210.5,67.5 Z"/></g>
<g><path style="opacity:0.467" fill="#9f9f9f" d="M 271.5,68.5 C 270.833,69.8333 269.833,70.8333 268.5,71.5C 268.5,69.5 269.5,68.5 271.5,68.5 Z"/></g>
<g><path style="opacity:0.098" fill="#b0b0b0" d="M 404.5,69.5 C 405.612,71.5994 406.279,73.9327 406.5,76.5C 404.837,74.5615 404.171,72.2282 404.5,69.5 Z"/></g>
<g><path style="opacity:0.016" fill="#bebebe" d="M 309.5,73.5 C 309.5,74.8333 308.833,75.5 307.5,75.5C 307.833,74.5 308.5,73.8333 309.5,73.5 Z"/></g>
<g><path style="opacity:0.886" fill="#767676" d="M 247.5,75.5 C 249.5,75.5 251.5,75.5 253.5,75.5C 251.5,78.1667 249.5,78.1667 247.5,75.5 Z"/></g>
<g><path style="opacity:0.714" fill="#737373" d="M 299.5,72.5 C 300.922,72.7496 301.922,73.583 302.5,75C 304.134,75.4935 305.801,75.6602 307.5,75.5C 303.755,77.4291 301.088,76.4291 299.5,72.5 Z"/></g>
<g><path style="opacity:0.024" fill="#cbcbcb" d="M 334.5,73.5 C 334.5,75.5 333.5,76.5 331.5,76.5C 332.167,75.1667 333.167,74.1667 334.5,73.5 Z"/></g>
<g><path style="opacity:0.02" fill="#cccccc" d="M 354.5,73.5 C 354.5,75.5 353.5,76.5 351.5,76.5C 352.167,75.1667 353.167,74.1667 354.5,73.5 Z"/></g>
<g><path style="opacity:0.224" fill="#b9b9b9" d="M 128.5,75.5 C 130.117,76.038 131.784,76.3713 133.5,76.5C 131.545,77.9302 129.879,77.5969 128.5,75.5 Z"/></g>
<g><path style="opacity:0.847" fill="#898989" d="M 153.5,76.5 C 155.833,76.5 158.167,76.5 160.5,76.5C 158.167,79.1667 155.833,79.1667 153.5,76.5 Z"/></g>
<g><path style="opacity:0.851" fill="#888888" d="M 371.5,76.5 C 373.833,76.5 376.167,76.5 378.5,76.5C 376.167,79.1667 373.833,79.1667 371.5,76.5 Z"/></g>
<g><path style="opacity:0.867" fill="#858585" d="M 465.5,75.5 C 468.096,76.2653 470.763,76.5987 473.5,76.5C 470.549,79.1951 467.882,78.8618 465.5,75.5 Z"/></g>
<g><path style="opacity:0.502" fill="#a5a5a5" d="M 423.5,76.5 C 420.45,77.9352 417.117,78.6019 413.5,78.5C 411.304,78.4954 409.304,78.162 407.5,77.5C 412.862,77.5276 418.195,77.1942 423.5,76.5 Z"/></g>
<g><path style="opacity:0.218" fill="#c3c3c3" d="M 388.5,94.5 C 384.802,94.5524 381.135,94.8857 377.5,95.5C 381.044,93.4309 384.71,93.0976 388.5,94.5 Z"/></g>
<g><path style="opacity:0.588" fill="#919191" d="M 255.5,95.5 C 252.212,95.0156 249.545,96.0156 247.5,98.5C 247.511,96.9826 248.177,95.8159 249.5,95C 251.712,94.2109 253.712,94.3775 255.5,95.5 Z"/></g>
<g><path style="opacity:1" fill="#151515" d="M 360.5,101.5 C 359.5,101.833 358.833,102.5 358.5,103.5C 354.431,106.868 349.764,109.201 344.5,110.5C 342.952,110.821 342.285,111.821 342.5,113.5C 342.5,113.833 342.5,114.167 342.5,114.5C 341.224,115.386 341.224,116.386 342.5,117.5C 343.107,117.376 343.44,117.043 343.5,116.5C 346.152,116.59 348.485,115.924 350.5,114.5C 351.705,113.314 353.039,113.314 354.5,114.5C 356.226,116.82 356.893,119.487 356.5,122.5C 355.5,122.833 354.833,123.5 354.5,124.5C 351.249,126.957 347.582,128.624 343.5,129.5C 342.275,130.152 341.608,131.319 341.5,133C 341.833,134.167 342.167,135.333 342.5,136.5C 343.107,136.376 343.44,136.043 343.5,135.5C 343.833,135.5 344.167,135.5 344.5,135.5C 349.062,134.204 353.729,133.538 358.5,133.5C 359.75,133.577 360.583,134.244 361,135.5C 361.78,137.387 361.613,139.054 360.5,140.5C 359.5,140.833 358.833,141.5 358.5,142.5C 354.497,145.959 349.83,148.292 344.5,149.5C 341.5,149.5 338.5,149.5 335.5,149.5C 335.027,148.094 334.027,147.427 332.5,147.5C 330.059,145.925 328.893,143.592 329,140.5C 328.333,131.167 328.333,121.833 329,112.5C 329.416,108.471 330.583,104.804 332.5,101.5C 334.776,99.6489 337.109,97.9823 339.5,96.5C 345.585,93.9575 351.918,93.1241 358.5,94C 361.17,96.1828 361.837,98.6828 360.5,101.5 Z"/></g>
<g><path style="opacity:1" fill="#151515" d="M 192.5,97.5 C 192.833,98.5 193.5,99.1667 194.5,99.5C 196.894,101.332 197.894,103.832 197.5,107C 197.652,111.737 195.985,115.571 192.5,118.5C 191.5,118.833 190.833,119.5 190.5,120.5C 190.5,121.167 190.167,121.5 189.5,121.5C 188.957,121.56 188.624,121.893 188.5,122.5C 189.325,123.386 190.325,123.719 191.5,123.5C 199.485,130.816 199.485,138.316 191.5,146C 183.364,151.5 174.864,152.334 166,148.5C 164.017,132.492 164.017,116.492 166,100.5C 167.488,98.84 169.321,97.84 171.5,97.5C 173.898,97.7406 175.898,97.0739 177.5,95.5C 180.976,94.3567 184.642,94.1901 188.5,95C 190.32,95.2004 191.653,96.0337 192.5,97.5 Z M 180.5,108.5 C 184.84,108.854 185.673,110.854 183,114.5C 181.649,116.019 180.149,117.352 178.5,118.5C 178.167,118 177.833,117.5 177.5,117C 177.834,113.825 178.834,110.992 180.5,108.5 Z M 182.5,129.5 C 183.234,130.708 183.567,132.041 183.5,133.5C 182.167,134.167 181.167,135.167 180.5,136.5C 179.5,136.5 178.5,136.5 177.5,136.5C 177.833,134.5 178.167,132.5 178.5,130.5C 179.833,130.167 181.167,129.833 182.5,129.5 Z"/></g>
<g><path style="opacity:1" fill="#101010" d="M 278.5,95.5 C 278.427,97.0269 279.094,98.0269 280.5,98.5C 281.338,98.8417 281.672,99.5084 281.5,100.5C 281.565,103.428 282.232,106.095 283.5,108.5C 285.355,121.067 284.189,133.401 280,145.5C 275.873,151.696 271.373,152.03 266.5,146.5C 266.446,144.368 265.446,143.035 263.5,142.5C 260.704,137.895 258.704,132.895 257.5,127.5C 257.539,126.244 257.039,125.244 256,124.5C 255.501,128.486 255.334,132.486 255.5,136.5C 256.114,141.032 255.114,145.032 252.5,148.5C 249.487,148.893 246.82,148.226 244.5,146.5C 242.926,144.898 242.259,142.898 242.5,140.5C 242.5,132.5 242.5,124.5 242.5,116.5C 242.298,114.05 242.631,111.717 243.5,109.5C 244.924,107.485 245.59,105.152 245.5,102.5C 245.5,102.167 245.5,101.833 245.5,101.5C 246.906,101.027 247.573,100.027 247.5,98.5C 249.545,96.0156 252.212,95.0156 255.5,95.5C 256.167,96.8333 257.167,97.8333 258.5,98.5C 258.427,100.027 259.094,101.027 260.5,101.5C 261.338,101.842 261.672,102.508 261.5,103.5C 261.166,106.491 262.166,108.824 264.5,110.5C 266.635,114.571 267.968,118.905 268.5,123.5C 268.312,125.103 268.812,126.437 270,127.5C 270.5,119.173 270.666,110.84 270.5,102.5C 270.232,100.901 270.566,99.5676 271.5,98.5C 272.833,97.8333 273.833,96.8333 274.5,95.5C 275.705,94.3143 277.039,94.3143 278.5,95.5 Z"/></g>
<g><path style="opacity:0.02" fill="#bababa" d="M 255.5,95.5 C 257.5,95.5 258.5,96.5 258.5,98.5C 257.167,97.8333 256.167,96.8333 255.5,95.5 Z"/></g>
<g><path style="opacity:1" fill="#111111" d="M 321.5,101.5 C 321.427,103.027 322.094,104.027 323.5,104.5C 324.338,104.842 324.672,105.508 324.5,106.5C 325.292,112.13 325.625,117.797 325.5,123.5C 321.214,138.783 311.214,147.783 295.5,150.5C 291.422,150.038 289.422,147.705 289.5,143.5C 289.334,130.149 289.667,116.815 290.5,103.5C 290.5,103.167 290.5,102.833 290.5,102.5C 292.167,101.5 293.5,100.167 294.5,98.5C 300.982,94.3528 307.982,93.5195 315.5,96C 317.996,97.331 319.996,99.1644 321.5,101.5 Z M 308.5,110.5 C 311.278,112.538 312.945,115.372 313.5,119C 312.591,121.895 311.591,124.728 310.5,127.5C 309.094,127.973 308.427,128.973 308.5,130.5C 306.539,132.312 304.206,133.312 301.5,133.5C 301.2,126.104 301.7,118.771 303,111.5C 304.699,110.594 306.533,110.261 308.5,110.5 Z"/></g>
<g><path style="opacity:1" fill="#151515" d="M 388.5,94.5 C 391.326,94.9977 393.66,96.3311 395.5,98.5C 395.427,100.027 396.094,101.027 397.5,101.5C 399.789,105.449 400.623,109.783 400,114.5C 398.486,120.128 395.986,125.128 392.5,129.5C 392.427,131.027 393.094,132.027 394.5,132.5C 395.11,133.391 395.443,134.391 395.5,135.5C 396.796,140.062 397.462,144.729 397.5,149.5C 397.586,150.496 397.252,151.329 396.5,152C 394.288,152.789 392.288,152.622 390.5,151.5C 390.144,149.81 389.144,148.81 387.5,148.5C 385.167,144.487 383.334,140.154 382,135.5C 380.701,135.034 379.201,135.034 377.5,135.5C 377.328,139.534 376.828,143.534 376,147.5C 375.8,149.32 374.966,150.653 373.5,151.5C 371.5,151.5 369.5,151.5 367.5,151.5C 365.306,149.779 364.139,147.445 364,144.5C 363.186,130.425 363.352,116.425 364.5,102.5C 365.833,101.833 366.833,100.833 367.5,99.5C 369.967,99.2451 371.967,98.2451 373.5,96.5C 374.568,95.5655 375.901,95.2322 377.5,95.5C 381.135,94.8857 384.802,94.5524 388.5,94.5 Z M 378.5,109.5 C 380.5,109.5 382.5,109.5 384.5,109.5C 385.301,111.042 385.634,112.708 385.5,114.5C 384.167,116.5 382.5,118.167 380.5,119.5C 379.504,119.414 378.671,119.748 378,120.5C 377.245,116.745 377.411,113.078 378.5,109.5 Z"/></g>
<g><path style="opacity:0.875" fill="#737373" d="M 426.5,96.5 C 423.5,96.5 420.5,96.5 417.5,96.5C 420.5,93.8333 423.5,93.8333 426.5,96.5 Z"/></g>
<g><path style="opacity:0.973" fill="#5c5c5c" d="M 177.5,95.5 C 175.898,97.0739 173.898,97.7406 171.5,97.5C 173.102,95.9261 175.102,95.2594 177.5,95.5 Z"/></g>
<g><path style="opacity:1" fill="#121212" d="M 227.5,98.5 C 227.427,100.027 228.094,101.027 229.5,101.5C 230.674,102.514 231.34,103.847 231.5,105.5C 231.259,107.898 231.926,109.898 233.5,111.5C 235.143,117.359 236.143,123.359 236.5,129.5C 236.64,135.536 236.307,141.536 235.5,147.5C 232.024,152.782 228.691,152.782 225.5,147.5C 224.686,142.881 224.353,138.214 224.5,133.5C 220.613,133.646 216.946,134.313 213.5,135.5C 213.895,141.32 211.895,145.987 207.5,149.5C 205.435,149.483 203.435,149.15 201.5,148.5C 199.97,145.305 199.304,141.805 199.5,138C 199.439,133.254 200.105,128.754 201.5,124.5C 203.074,121.093 204.074,117.427 204.5,113.5C 204.872,109.703 206.206,106.37 208.5,103.5C 209.906,103.027 210.573,102.027 210.5,100.5C 210.833,99.5 211.5,98.8333 212.5,98.5C 214.027,98.573 215.027,97.9063 215.5,96.5C 219.905,93.9518 223.905,94.6185 227.5,98.5 Z M 219.5,109.5 C 219.932,110.71 220.599,111.71 221.5,112.5C 221.507,115.038 221.841,117.538 222.5,120C 222.138,121.434 221.472,122.601 220.5,123.5C 219.167,123.5 217.833,123.5 216.5,123.5C 215.761,120.348 215.761,117.015 216.5,113.5C 217.5,112.167 218.5,110.833 219.5,109.5 Z"/></g>
<g><path style="opacity:0.702" fill="#929292" d="M 278.5,95.5 C 279.906,95.9731 280.573,96.9731 280.5,98.5C 279.094,98.0269 278.427,97.0269 278.5,95.5 Z"/></g>
<g><path style="opacity:1" fill="#131313" d="M 417.5,96.5 C 420.5,96.5 423.5,96.5 426.5,96.5C 427.492,96.3284 428.158,96.6618 428.5,97.5C 428.738,99.4044 429.738,100.738 431.5,101.5C 432.338,101.842 432.672,102.508 432.5,103.5C 432.69,106.855 433.69,109.855 435.5,112.5C 438.908,123.563 439.742,134.897 438,146.5C 437.623,147.942 436.79,148.942 435.5,149.5C 432.763,149.599 430.096,149.265 427.5,148.5C 426.89,147.609 426.557,146.609 426.5,145.5C 426.793,141.563 426.46,137.73 425.5,134C 421.967,133.757 418.633,134.257 415.5,135.5C 415.452,139.813 414.285,143.813 412,147.5C 409.294,150.978 406.294,151.311 403,148.5C 400.827,138.613 401.327,128.947 404.5,119.5C 406.277,116.495 407.277,113.162 407.5,109.5C 407.992,107.181 408.992,105.181 410.5,103.5C 412.262,102.738 413.262,101.404 413.5,99.5C 414.262,97.7376 415.596,96.7376 417.5,96.5 Z M 416.5,122.5 C 417.787,118.687 418.787,114.687 419.5,110.5C 421.3,109.395 422.467,110.061 423,112.5C 423.61,115.827 424.11,119.161 424.5,122.5C 421.672,123.497 419.005,123.497 416.5,122.5 Z"/></g>
<g><path style="opacity:0.016" fill="#b9b9b9" d="M 192.5,97.5 C 193.833,97.5 194.5,98.1667 194.5,99.5C 193.5,99.1667 192.833,98.5 192.5,97.5 Z"/></g>
<g><path style="opacity:0.812" fill="#717171" d="M 215.5,96.5 C 215.027,97.9063 214.027,98.573 212.5,98.5C 212.973,97.0937 213.973,96.427 215.5,96.5 Z"/></g>
<g><path style="opacity:0.278" fill="#bababa" d="M 274.5,95.5 C 273.833,96.8333 272.833,97.8333 271.5,98.5C 271.5,96.5 272.5,95.5 274.5,95.5 Z"/></g>
<g><path style="opacity:0.671" fill="#818181" d="M 339.5,96.5 C 337.109,97.9823 334.776,99.6489 332.5,101.5C 333.56,98.2314 335.893,96.5647 339.5,96.5 Z"/></g>
<g><path style="opacity:0.733" fill="#747474" d="M 373.5,96.5 C 371.967,98.2451 369.967,99.2451 367.5,99.5C 369.033,97.7549 371.033,96.7549 373.5,96.5 Z"/></g>
<g><path style="opacity:0.78" fill="#8e8e8e" d="M 428.5,97.5 C 430.262,98.2623 431.262,99.5956 431.5,101.5C 429.738,100.738 428.738,99.4044 428.5,97.5 Z"/></g>
<g><path style="opacity:0.51" fill="#8f8f8f" d="M 227.5,98.5 C 228.906,98.9731 229.573,99.9731 229.5,101.5C 228.094,101.027 227.427,100.027 227.5,98.5 Z"/></g>
<g><path style="opacity:0.231" fill="#b4b4b4" d="M 247.5,98.5 C 247.573,100.027 246.906,101.027 245.5,101.5C 245.427,99.9731 246.094,98.9731 247.5,98.5 Z"/></g>
<g><path style="opacity:0.529" fill="#828282" d="M 258.5,98.5 C 259.906,98.9731 260.573,99.9731 260.5,101.5C 259.094,101.027 258.427,100.027 258.5,98.5 Z"/></g>
<g><path style="opacity:0.69" fill="#8d8d8d" d="M 294.5,98.5 C 293.5,100.167 292.167,101.5 290.5,102.5C 290.833,100.167 292.167,98.8333 294.5,98.5 Z"/></g>
<g><path style="opacity:0.38" fill="#a8a8a8" d="M 395.5,98.5 C 396.906,98.9731 397.573,99.9731 397.5,101.5C 396.094,101.027 395.427,100.027 395.5,98.5 Z"/></g>
<g><path style="opacity:0.91" fill="#727272" d="M 413.5,99.5 C 413.262,101.404 412.262,102.738 410.5,103.5C 410.738,101.596 411.738,100.262 413.5,99.5 Z"/></g>
<g><path style="opacity:0.376" fill="#a9a9a9" d="M 367.5,99.5 C 366.833,100.833 365.833,101.833 364.5,102.5C 364.5,100.5 365.5,99.5 367.5,99.5 Z"/></g>
<g><path style="opacity:0.333" fill="#b1b1b1" d="M 210.5,100.5 C 210.573,102.027 209.906,103.027 208.5,103.5C 208.427,101.973 209.094,100.973 210.5,100.5 Z"/></g>
<g><path style="opacity:0.004" fill="#c5c5c5" d="M 360.5,101.5 C 360.5,102.833 359.833,103.5 358.5,103.5C 358.833,102.5 359.5,101.833 360.5,101.5 Z"/></g>
<g><path style="opacity:0.424" fill="#9b9b9b" d="M 321.5,101.5 C 322.906,101.973 323.573,102.973 323.5,104.5C 322.094,104.027 321.427,103.027 321.5,101.5 Z"/></g>
<g><path style="opacity:0.976" fill="#6f6f6f" d="M 261.5,103.5 C 263.065,105.509 264.065,107.843 264.5,110.5C 262.166,108.824 261.166,106.491 261.5,103.5 Z"/></g>
<g><path style="opacity:0.631" fill="#858585" d="M 281.5,100.5 C 283.04,102.838 283.706,105.505 283.5,108.5C 282.232,106.095 281.565,103.428 281.5,100.5 Z"/></g>
<g><path style="opacity:0.839" fill="#838383" d="M 231.5,105.5 C 232.738,107.214 233.405,109.214 233.5,111.5C 231.926,109.898 231.259,107.898 231.5,105.5 Z"/></g>
<g><path style="opacity:0.616" fill="#848484" d="M 245.5,102.5 C 245.59,105.152 244.924,107.485 243.5,109.5C 243.41,106.848 244.076,104.515 245.5,102.5 Z"/></g>
<g><path style="opacity:0.718" fill="#828282" d="M 432.5,103.5 C 434.472,106.084 435.472,109.084 435.5,112.5C 433.69,109.855 432.69,106.855 432.5,103.5 Z"/></g>
<g><path style="opacity:0.016" fill="#c1c1c1" d="M 219.5,109.5 C 221.048,109.821 221.715,110.821 221.5,112.5C 220.599,111.71 219.932,110.71 219.5,109.5 Z"/></g>
<g><path style="opacity:0.698" fill="#6a6a6a" d="M 270.5,102.5 C 270.666,110.84 270.5,119.173 270,127.5C 268.812,126.437 268.312,125.103 268.5,123.5C 269.167,116.5 269.833,109.5 270.5,102.5 Z"/></g>
<g><path style="opacity:0.118" fill="#d0d0d0" d="M 344.5,110.5 C 344.068,111.71 343.401,112.71 342.5,113.5C 342.285,111.821 342.952,110.821 344.5,110.5 Z"/></g>
<g><path style="opacity:0.4" fill="#838383" d="M 384.5,109.5 C 385.649,109.791 386.316,110.624 386.5,112C 386.472,113.07 386.139,113.903 385.5,114.5C 385.634,112.708 385.301,111.042 384.5,109.5 Z"/></g>
<g><path style="opacity:0.878" fill="#7e7e7e" d="M 407.5,109.5 C 407.277,113.162 406.277,116.495 404.5,119.5C 404.723,115.838 405.723,112.505 407.5,109.5 Z"/></g>
<g><path style="opacity:0.396" fill="#a8a8a8" d="M 324.5,106.5 C 326.019,109.526 326.685,112.859 326.5,116.5C 326.497,119.025 326.163,121.359 325.5,123.5C 325.625,117.797 325.292,112.13 324.5,106.5 Z"/></g>
<g><path style="opacity:0.49" fill="#a5a5a5" d="M 419.5,110.5 C 418.787,114.687 417.787,118.687 416.5,122.5C 416.272,118.076 417.272,114.076 419.5,110.5 Z"/></g>
<g><path style="opacity:0.886" fill="#6e6e6e" d="M 350.5,114.5 C 348.485,115.924 346.152,116.59 343.5,116.5C 345.515,115.076 347.848,114.41 350.5,114.5 Z"/></g>
<g><path style="opacity:0.456" fill="#979797" d="M 378.5,109.5 C 377.411,113.078 377.245,116.745 378,120.5C 378.671,119.748 379.504,119.414 380.5,119.5C 379.713,121.104 378.38,121.771 376.5,121.5C 375.911,117.029 376.577,113.029 378.5,109.5 Z"/></g>
<g><path style="opacity:0.327" fill="#a0a0a0" d="M 342.5,114.5 C 342.328,115.492 342.662,116.158 343.5,116.5C 343.44,117.043 343.107,117.376 342.5,117.5C 341.224,116.386 341.224,115.386 342.5,114.5 Z"/></g>
<g><path style="opacity:0.737" fill="#999999" d="M 354.5,114.5 C 355.496,114.414 356.329,114.748 357,115.5C 359.048,118.143 358.881,120.476 356.5,122.5C 356.893,119.487 356.226,116.82 354.5,114.5 Z"/></g>
<g><path style="opacity:0.008" fill="#bababa" d="M 192.5,118.5 C 192.5,119.833 191.833,120.5 190.5,120.5C 190.833,119.5 191.5,118.833 192.5,118.5 Z"/></g>
<g><path style="opacity:0.753" fill="#7f7f7f" d="M 204.5,113.5 C 204.074,117.427 203.074,121.093 201.5,124.5C 201.517,120.466 202.517,116.799 204.5,113.5 Z"/></g>
<g><path style="opacity:0.486" fill="#858585" d="M 290.5,103.5 C 289.667,116.815 289.334,130.149 289.5,143.5C 288.834,138.177 288.501,132.677 288.5,127C 288.307,118.94 288.973,111.107 290.5,103.5 Z"/></g>
<g><path style="opacity:0.235" fill="#b2b2b2" d="M 216.5,113.5 C 215.761,117.015 215.761,120.348 216.5,123.5C 216.44,124.043 216.107,124.376 215.5,124.5C 214.252,120.6 214.585,116.933 216.5,113.5 Z"/></g>
<g><path style="opacity:0.635" fill="#818181" d="M 221.5,112.5 C 223.217,115.845 223.884,119.511 223.5,123.5C 222.5,123.5 221.5,123.5 220.5,123.5C 221.472,122.601 222.138,121.434 222.5,120C 221.841,117.538 221.507,115.038 221.5,112.5 Z"/></g>
<g><path style="opacity:0.476" fill="#8a8a8a" d="M 308.5,110.5 C 306.533,110.261 304.699,110.594 303,111.5C 301.7,118.771 301.2,126.104 301.5,133.5C 300.173,125.955 300.34,118.288 302,110.5C 304.274,109.189 306.44,109.189 308.5,110.5 Z"/></g>
<g><path style="opacity:0.596" fill="#a3a3a3" d="M 189.5,121.5 C 190.167,122.167 190.833,122.833 191.5,123.5C 190.325,123.719 189.325,123.386 188.5,122.5C 188.624,121.893 188.957,121.56 189.5,121.5 Z"/></g>
<g><path style="opacity:0.012" fill="#bdbdbd" d="M 356.5,122.5 C 356.5,123.833 355.833,124.5 354.5,124.5C 354.833,123.5 355.5,122.833 356.5,122.5 Z"/></g>
<g><path style="opacity:0.25" fill="#c1c1c1" d="M 257.5,127.5 C 256.833,130.5 256.167,133.5 255.5,136.5C 255.334,132.486 255.501,128.486 256,124.5C 257.039,125.244 257.539,126.244 257.5,127.5 Z"/></g>
<g><path style="opacity:0.78" fill="#7b7b7b" d="M 242.5,116.5 C 242.5,124.5 242.5,132.5 242.5,140.5C 240.463,132.557 240.463,124.557 242.5,116.5 Z"/></g>
<g><path style="opacity:0.537" fill="#929292" d="M 310.5,127.5 C 310.573,129.027 309.906,130.027 308.5,130.5C 308.427,128.973 309.094,127.973 310.5,127.5 Z"/></g>
<g><path style="opacity:0.063" fill="#d0d0d0" d="M 182.5,129.5 C 183.586,129.62 184.253,130.287 184.5,131.5C 184.457,132.416 184.124,133.083 183.5,133.5C 183.567,132.041 183.234,130.708 182.5,129.5 Z"/></g>
<g><path style="opacity:0.11" fill="#c4c4c4" d="M 343.5,129.5 C 342.258,131.611 342.258,133.611 343.5,135.5C 343.44,136.043 343.107,136.376 342.5,136.5C 342.167,135.333 341.833,134.167 341.5,133C 341.608,131.319 342.275,130.152 343.5,129.5 Z"/></g>
<g><path style="opacity:0.263" fill="#b0b0b0" d="M 392.5,129.5 C 393.906,129.973 394.573,130.973 394.5,132.5C 393.094,132.027 392.427,131.027 392.5,129.5 Z"/></g>
<g><path style="opacity:0.737" fill="#777777" d="M 178.5,130.5 C 178.167,132.5 177.833,134.5 177.5,136.5C 178.5,136.5 179.5,136.5 180.5,136.5C 179.432,137.434 178.099,137.768 176.5,137.5C 176.338,135.473 176.505,133.473 177,131.5C 177.383,130.944 177.883,130.611 178.5,130.5 Z"/></g>
<g><path style="opacity:0.933" fill="#606060" d="M 358.5,133.5 C 353.729,133.538 349.062,134.204 344.5,135.5C 348.058,133.701 351.892,132.368 356,131.5C 357.301,131.639 358.134,132.305 358.5,133.5 Z"/></g>
<g><path style="opacity:0.314" fill="#909090" d="M 426.5,145.5 C 425.778,141.88 424.778,138.213 423.5,134.5C 420.916,135.393 418.249,135.726 415.5,135.5C 418.633,134.257 421.967,133.757 425.5,134C 426.46,137.73 426.793,141.563 426.5,145.5 Z"/></g>
<g><path style="opacity:0.706" fill="#8c8c8c" d="M 183.5,133.5 C 183.5,135.5 182.5,136.5 180.5,136.5C 181.167,135.167 182.167,134.167 183.5,133.5 Z"/></g>
<g><path style="opacity:0.761" fill="#838383" d="M 225.5,147.5 C 223.934,144.118 222.934,140.451 222.5,136.5C 222.709,135.914 223.043,135.414 223.5,135C 220.223,135.201 216.889,135.368 213.5,135.5C 216.946,134.313 220.613,133.646 224.5,133.5C 224.353,138.214 224.686,142.881 225.5,147.5 Z"/></g>
<g><path style="opacity:0.394" fill="#b5b5b5" d="M 236.5,129.5 C 237.164,131.81 237.497,134.31 237.5,137C 237.696,140.805 237.03,144.305 235.5,147.5C 236.307,141.536 236.64,135.536 236.5,129.5 Z"/></g>
<g><path style="opacity:0.965" fill="#848484" d="M 395.5,135.5 C 398.301,139.914 398.968,144.58 397.5,149.5C 397.462,144.729 396.796,140.062 395.5,135.5 Z"/></g>
<g><path style="opacity:0.008" fill="#c2c2c2" d="M 360.5,140.5 C 360.5,141.833 359.833,142.5 358.5,142.5C 358.833,141.5 359.5,140.833 360.5,140.5 Z"/></g>
<g><path style="opacity:0.961" fill="#727272" d="M 263.5,142.5 C 265.446,143.035 266.446,144.368 266.5,146.5C 265.026,145.564 264.026,144.23 263.5,142.5 Z"/></g>
<g><path style="opacity:0.788" fill="#989898" d="M 244.5,146.5 C 246.82,148.226 249.487,148.893 252.5,148.5C 250.367,150.767 248.034,150.934 245.5,149C 244.748,148.329 244.414,147.496 244.5,146.5 Z"/></g>
<g><path style="opacity:0.357" fill="#a6a6a6" d="M 332.5,147.5 C 334.027,147.427 335.027,148.094 335.5,149.5C 333.973,149.573 332.973,148.906 332.5,147.5 Z"/></g>
<g><path style="opacity:0.251" fill="#bababa" d="M 201.5,148.5 C 203.435,149.15 205.435,149.483 207.5,149.5C 206.903,150.139 206.07,150.472 205,150.5C 203.301,150.613 202.134,149.947 201.5,148.5 Z"/></g>
<g><path style="opacity:0.773" fill="#919191" d="M 335.5,149.5 C 338.5,149.5 341.5,149.5 344.5,149.5C 341.5,152.167 338.5,152.167 335.5,149.5 Z"/></g>
<g><path style="opacity:0.894" fill="#7b7b7b" d="M 427.5,148.5 C 430.096,149.265 432.763,149.599 435.5,149.5C 432.549,152.195 429.882,151.862 427.5,148.5 Z"/></g>
<g><path style="opacity:0.525" fill="#868686" d="M 387.5,148.5 C 389.144,148.81 390.144,149.81 390.5,151.5C 388.856,151.19 387.856,150.19 387.5,148.5 Z"/></g>
<g><path style="opacity:0.871" fill="#707070" d="M 367.5,151.5 C 369.5,151.5 371.5,151.5 373.5,151.5C 371.5,154.167 369.5,154.167 367.5,151.5 Z"/></g>
<g><path style="opacity:0.988" fill="#faf7f8" d="M 80.5,175.5 C 88.9839,174.507 97.6506,174.174 106.5,174.5C 106.328,175.492 106.662,176.158 107.5,176.5C 128.961,186.982 150.295,197.649 171.5,208.5C 172.499,197.52 172.832,186.52 172.5,175.5C 172.5,175.167 172.5,174.833 172.5,174.5C 182.5,174.5 192.5,174.5 202.5,174.5C 202.5,174.833 202.5,175.167 202.5,175.5C 195.167,175.5 187.833,175.5 180.5,175.5C 180.5,190.167 180.5,204.833 180.5,219.5C 147.167,219.5 113.833,219.5 80.5,219.5C 80.5,217.167 80.5,214.833 80.5,212.5C 96.8367,212.667 113.17,212.5 129.5,212C 128.756,210.961 127.756,210.461 126.5,210.5C 111.833,203.167 97.1667,195.833 82.5,188.5C 82.1583,187.662 81.4916,187.328 80.5,187.5C 80.5,186.167 80.5,184.833 80.5,183.5C 99.3725,193.103 118.373,202.436 137.5,211.5C 142.68,212.815 148.014,212.815 153.5,211.5C 153.043,210.702 152.376,210.369 151.5,210.5C 127.961,198.564 104.294,186.897 80.5,175.5 Z"/></g>
<g><path style="opacity:0.299" fill="#b8c0d5" d="M 106.5,174.5 C 128.5,174.5 150.5,174.5 172.5,174.5C 172.5,174.833 172.5,175.167 172.5,175.5C 150.66,175.169 128.994,175.503 107.5,176.5C 106.662,176.158 106.328,175.492 106.5,174.5 Z"/></g>
<g><path style="opacity:0.995" fill="#fcfafb" d="M 202.5,175.5 C 202.5,175.167 202.5,174.833 202.5,174.5C 204.833,174.5 207.167,174.5 209.5,174.5C 209.5,174.833 209.5,175.167 209.5,175.5C 209.168,186.52 209.501,197.52 210.5,208.5C 211.107,208.376 211.44,208.043 211.5,207.5C 232.833,197.167 254.167,186.833 275.5,176.5C 276.338,176.158 276.672,175.492 276.5,174.5C 284.683,174.605 293.016,174.605 301.5,174.5C 301.5,174.833 301.5,175.167 301.5,175.5C 301.769,179.931 301.436,184.265 300.5,188.5C 285.404,195.548 270.404,202.881 255.5,210.5C 254.711,210.783 254.044,211.283 253.5,212C 269.497,212.5 285.497,212.667 301.5,212.5C 301.5,214.5 301.5,216.5 301.5,218.5C 268.833,218.5 236.167,218.5 203.5,218.5C 203.829,203.99 203.496,189.657 202.5,175.5 Z"/></g>
<g><path style="opacity:0.303" fill="#b6c0d4" d="M 209.5,175.5 C 209.5,175.167 209.5,174.833 209.5,174.5C 231.833,174.5 254.167,174.5 276.5,174.5C 276.672,175.492 276.338,176.158 275.5,176.5C 254.006,175.503 232.34,175.169 210.5,175.5C 210.167,175.5 209.833,175.5 209.5,175.5 Z"/></g>
<g><path style="opacity:1" fill="#3c548c" d="M 209.5,175.5 C 209.833,175.5 210.167,175.5 210.5,175.5C 210.172,186.346 210.506,197.013 211.5,207.5C 211.44,208.043 211.107,208.376 210.5,208.5C 209.501,197.52 209.168,186.52 209.5,175.5 Z"/></g>
<g><path style="opacity:1" fill="#cb2438" d="M 80.5,175.5 C 104.294,186.897 127.961,198.564 151.5,210.5C 147.03,211.486 142.363,211.819 137.5,211.5C 118.373,202.436 99.3725,193.103 80.5,183.5C 80.043,180.691 80.043,178.024 80.5,175.5 Z"/></g>
<g><path style="opacity:1" fill="#07236a" d="M 107.5,176.5 C 128.994,175.503 150.66,175.169 172.5,175.5C 172.832,186.52 172.499,197.52 171.5,208.5C 150.295,197.649 128.961,186.982 107.5,176.5 Z"/></g>
<g><path style="opacity:1" fill="#c8132f" d="M 202.5,175.5 C 202.5,190.167 202.5,204.833 202.5,219.5C 235.5,219.5 268.5,219.5 301.5,219.5C 301.5,226.833 301.5,234.167 301.5,241.5C 268.5,241.5 235.5,241.5 202.5,241.5C 202.5,256.167 202.5,270.833 202.5,285.5C 195.167,285.5 187.833,285.5 180.5,285.5C 180.5,270.833 180.5,256.167 180.5,241.5C 146.996,241.832 113.662,241.498 80.5,240.5C 80.5,233.5 80.5,226.5 80.5,219.5C 113.833,219.5 147.167,219.5 180.5,219.5C 180.5,204.833 180.5,190.167 180.5,175.5C 187.833,175.5 195.167,175.5 202.5,175.5 Z"/></g>
<g><path style="opacity:1" fill="#04226a" d="M 210.5,175.5 C 232.34,175.169 254.006,175.503 275.5,176.5C 254.167,186.833 232.833,197.167 211.5,207.5C 210.506,197.013 210.172,186.346 210.5,175.5 Z"/></g>
<g><path style="opacity:1" fill="#cb2237" d="M 228.5,211.5 C 223.637,211.819 218.97,211.486 214.5,210.5C 237.473,199.013 260.473,187.513 283.5,176C 289.167,175.333 294.833,175.333 300.5,176C 276.601,188.116 252.601,199.95 228.5,211.5 Z"/></g>
<g><path style="opacity:1" fill="#5c6e9d" d="M 301.5,175.5 C 301.833,175.5 302.167,175.5 302.5,175.5C 303.097,180.294 302.43,184.627 300.5,188.5C 301.436,184.265 301.769,179.931 301.5,175.5 Z"/></g>
<g><path style="opacity:1" fill="#012169" d="M 302.5,175.5 C 375.833,175.5 449.167,175.5 522.5,175.5C 522.5,248.5 522.5,321.5 522.5,394.5C 375.833,394.5 229.167,394.5 82.5,394.5C 82.8318,358.329 82.4984,322.329 81.5,286.5C 81.5,286.167 81.5,285.833 81.5,285.5C 87.1667,285.5 92.8333,285.5 98.5,285.5C 101.187,285.664 103.854,285.497 106.5,285C 128.167,274.167 149.833,263.333 171.5,252.5C 172.499,263.48 172.832,274.48 172.5,285.5C 175.167,285.5 177.833,285.5 180.5,285.5C 187.833,285.5 195.167,285.5 202.5,285.5C 204.833,285.5 207.167,285.5 209.5,285.5C 209.842,274.628 210.842,263.961 212.5,253.5C 233.473,263.987 254.473,274.487 275.5,285C 283.827,285.5 292.16,285.666 300.5,285.5C 301.477,282.713 301.81,279.713 301.5,276.5C 301.762,275.022 301.429,273.689 300.5,272.5C 285.741,265.121 271.075,257.787 256.5,250.5C 271.5,249.833 286.5,249.167 301.5,248.5C 301.5,246.167 301.5,243.833 301.5,241.5C 301.5,234.167 301.5,226.833 301.5,219.5C 302.473,217.052 302.806,214.385 302.5,211.5C 286.658,211.83 270.991,211.496 255.5,210.5C 270.404,202.881 285.404,195.548 300.5,188.5C 302.43,184.627 303.097,180.294 302.5,175.5 Z M 401.5,214.5 C 401.5,215.833 400.833,216.5 399.5,216.5C 398.34,214.797 399.007,214.131 401.5,214.5 Z M 426.5,215.5 C 425.233,216.087 424.233,216.087 423.5,215.5C 424.614,214.224 425.614,214.224 426.5,215.5 Z M 413.5,205.5 C 413.361,207.337 412.694,207.67 411.5,206.5C 411.957,205.702 412.624,205.369 413.5,205.5 Z M 466.5,255.5 C 465.227,254.923 465.227,254.257 466.5,253.5C 467.463,253.97 467.463,254.637 466.5,255.5 Z M 462.5,267.5 C 461.537,266.637 461.537,265.97 462.5,265.5C 463.773,266.257 463.773,266.923 462.5,267.5 Z M 354.5,278.5 C 354.5,278.833 354.5,279.167 354.5,279.5C 354.833,280.167 355.167,280.833 355.5,281.5C 354.833,281.5 354.167,281.5 353.5,281.5C 353.263,280.209 353.596,279.209 354.5,278.5 Z M 367.5,281.5 C 368.623,280.243 369.289,280.576 369.5,282.5C 368.833,282.167 368.167,281.833 367.5,281.5 Z M 396.5,347.5 C 397.209,346.596 398.209,346.263 399.5,346.5C 399.5,347.167 399.5,347.833 399.5,348.5C 398.609,347.89 397.609,347.557 396.5,347.5 Z M 425.5,346.5 C 426.791,346.263 427.791,346.596 428.5,347.5C 427.504,347.414 426.671,347.748 426,348.5C 425.536,347.906 425.369,347.239 425.5,346.5 Z M 411.5,336.5 C 413.337,336.639 413.67,337.306 412.5,338.5C 411.702,338.043 411.369,337.376 411.5,336.5 Z M 404.5,362.5 C 404.443,363.609 404.11,364.609 403.5,365.5C 402.662,365.158 402.328,364.492 402.5,363.5C 403.167,363.167 403.833,362.833 404.5,362.5 Z"/></g>
<g><path style="opacity:0.396" fill="#a2aec7" d="M 301.5,175.5 C 301.5,175.167 301.5,174.833 301.5,174.5C 375.5,174.5 449.5,174.5 523.5,174.5C 523.833,248.669 523.499,322.669 522.5,396.5C 522.5,396.167 522.5,395.833 522.5,395.5C 522.5,395.167 522.5,394.833 522.5,394.5C 522.5,321.5 522.5,248.5 522.5,175.5C 449.167,175.5 375.833,175.5 302.5,175.5C 302.167,175.5 301.833,175.5 301.5,175.5 Z"/></g>
<g><path style="opacity:1" fill="#05226a" d="M 82.5,188.5 C 97.1667,195.833 111.833,203.167 126.5,210.5C 111.676,211.496 96.676,211.829 81.5,211.5C 81.1746,203.648 81.508,195.982 82.5,188.5 Z"/></g>
<g><path style="opacity:1" fill="#7687ae" d="M 255.5,210.5 C 270.991,211.496 286.658,211.83 302.5,211.5C 302.806,214.385 302.473,217.052 301.5,219.5C 301.5,219.167 301.5,218.833 301.5,218.5C 301.5,216.5 301.5,214.5 301.5,212.5C 285.497,212.667 269.497,212.5 253.5,212C 254.044,211.283 254.711,210.783 255.5,210.5 Z"/></g>
<g><path style="opacity:1" fill="#7585ad" d="M 80.5,187.5 C 81.4916,187.328 82.1583,187.662 82.5,188.5C 81.508,195.982 81.1746,203.648 81.5,211.5C 96.676,211.829 111.676,211.496 126.5,210.5C 127.756,210.461 128.756,210.961 129.5,212C 113.17,212.5 96.8367,212.667 80.5,212.5C 80.5,204.167 80.5,195.833 80.5,187.5 Z"/></g>
<g><path style="opacity:1" fill="#e28393" d="M 151.5,210.5 C 152.376,210.369 153.043,210.702 153.5,211.5C 148.014,212.815 142.68,212.815 137.5,211.5C 142.363,211.819 147.03,211.486 151.5,210.5 Z"/></g>
<g><path style="opacity:1" fill="#e28594" d="M 214.5,210.5 C 218.97,211.486 223.637,211.819 228.5,211.5C 223.32,212.815 217.986,212.815 212.5,211.5C 212.957,210.702 213.624,210.369 214.5,210.5 Z"/></g>
<g><path style="opacity:0.471" fill="#8b9abb" d="M 408.5,213.5 C 406.393,214.468 404.059,214.802 401.5,214.5C 399.007,214.131 398.34,214.797 399.5,216.5C 398.005,216.585 397.005,215.919 396.5,214.5C 400.445,213.509 404.445,213.176 408.5,213.5 Z"/></g>
<g><path style="opacity:0.008" fill="#d7d0dd" d="M 413.5,205.5 C 414.67,207.65 415.67,209.984 416.5,212.5C 420.5,213.167 424.5,213.833 428.5,214.5C 428.043,215.298 427.376,215.631 426.5,215.5C 425.564,216.974 424.23,217.974 422.5,218.5C 420.787,219.223 419.787,220.557 419.5,222.5C 420.156,224.453 420.489,226.453 420.5,228.5C 419.167,229.167 419.167,229.833 420.5,230.5C 420.5,230.833 420.5,231.167 420.5,231.5C 417.868,229.887 415.202,228.22 412.5,226.5C 409.798,228.22 407.132,229.887 404.5,231.5C 403.698,232.885 403.031,232.718 402.5,231C 403.403,228.123 404.403,225.29 405.5,222.5C 403.812,220.146 401.812,218.146 399.5,216.5C 400.833,216.5 401.5,215.833 401.5,214.5C 404.059,214.802 406.393,214.468 408.5,213.5C 409.379,209.638 410.713,205.971 412.5,202.5C 413.386,203.325 413.719,204.325 413.5,205.5 Z M 426.5,215.5 C 425.614,214.224 424.614,214.224 423.5,215.5C 424.233,216.087 425.233,216.087 426.5,215.5 Z M 413.5,205.5 C 412.624,205.369 411.957,205.702 411.5,206.5C 412.694,207.67 413.361,207.337 413.5,205.5 Z"/></g>
<g><path style="opacity:0.659" fill="#dd6879" d="M 414.5,215.5 C 417.698,214.964 420.365,215.631 422.5,217.5C 422.167,217.5 421.833,217.5 421.5,217.5C 419.167,216.833 416.833,216.167 414.5,215.5 Z"/></g>
<g><path style="opacity:1" fill="#cc283b" d="M 414.5,215.5 C 416.833,216.167 419.167,216.833 421.5,217.5C 420.279,218.028 419.113,218.695 418,219.5C 417.949,222.277 417.782,224.943 417.5,227.5C 414.167,223.5 410.833,223.5 407.5,227.5C 406.472,225.56 406.472,223.56 407.5,221.5C 406.194,219.527 404.527,217.861 402.5,216.5C 404.766,215.686 407.1,215.186 409.5,215C 411.924,207.591 413.591,207.757 414.5,215.5 Z"/></g>
<g><path style="opacity:1" fill="#f8e5e8" d="M 202.5,175.5 C 203.496,189.657 203.829,203.99 203.5,218.5C 236.167,218.5 268.833,218.5 301.5,218.5C 301.5,218.833 301.5,219.167 301.5,219.5C 268.5,219.5 235.5,219.5 202.5,219.5C 202.5,204.833 202.5,190.167 202.5,175.5 Z"/></g>
<g><path style="opacity:0.349" fill="#94a2c1" d="M 421.5,230.5 C 422.573,231.251 422.74,232.251 422,233.5C 421.283,232.956 420.783,232.289 420.5,231.5C 421.167,231.5 421.5,231.167 421.5,230.5 Z"/></g>
<g><path style="opacity:0.992" fill="#faf7f9" d="M 80.5,240.5 C 113.662,241.498 146.996,241.832 180.5,241.5C 180.5,256.167 180.5,270.833 180.5,285.5C 177.833,285.5 175.167,285.5 172.5,285.5C 172.832,274.48 172.499,263.48 171.5,252.5C 149.833,263.333 128.167,274.167 106.5,285C 103.854,285.497 101.187,285.664 98.5,285.5C 121.31,273.595 144.31,261.928 167.5,250.5C 168.473,250.013 169.473,249.513 170.5,249C 164.651,248.182 158.985,248.348 153.5,249.5C 129.214,260.977 105.214,272.977 81.5,285.5C 81.1667,285.5 80.8333,285.5 80.5,285.5C 80.5,281.167 80.5,276.833 80.5,272.5C 80.8333,272.5 81.1667,272.5 81.5,272.5C 96.5653,265.468 111.565,258.135 126.5,250.5C 127.289,250.217 127.956,249.717 128.5,249C 120.5,248.833 112.5,248.667 104.5,248.5C 96.1376,248.502 88.1376,249.169 80.5,250.5C 79.1667,247.167 79.1667,243.833 80.5,240.5 Z"/></g>
<g><path style="opacity:1" fill="#fbf8f9" d="M 301.5,241.5 C 301.5,243.833 301.5,246.167 301.5,248.5C 285.497,248.333 269.497,248.5 253.5,249C 254.244,250.039 255.244,250.539 256.5,250.5C 271.075,257.787 285.741,265.121 300.5,272.5C 301.429,273.689 301.762,275.022 301.5,276.5C 282.658,268.08 263.991,259.08 245.5,249.5C 240.35,248.349 235.016,248.183 229.5,249C 230.044,249.717 230.711,250.217 231.5,250.5C 254.69,261.928 277.69,273.595 300.5,285.5C 292.16,285.666 283.827,285.5 275.5,285C 254.473,274.487 233.473,263.987 212.5,253.5C 211.791,252.596 210.791,252.263 209.5,252.5C 209.5,263.5 209.5,274.5 209.5,285.5C 207.167,285.5 204.833,285.5 202.5,285.5C 202.5,270.833 202.5,256.167 202.5,241.5C 235.5,241.5 268.5,241.5 301.5,241.5 Z"/></g>
<g><path style="opacity:1" fill="#596d9d" d="M 126.5,250.5 C 111.676,249.504 96.676,249.171 81.5,249.5C 81.5,257.167 81.5,264.833 81.5,272.5C 81.1667,272.5 80.8333,272.5 80.5,272.5C 80.5,265.167 80.5,257.833 80.5,250.5C 88.1376,249.169 96.1376,248.502 104.5,248.5C 112.5,248.667 120.5,248.833 128.5,249C 127.956,249.717 127.289,250.217 126.5,250.5 Z"/></g>
<g><path style="opacity:1" fill="#dd6a7c" d="M 153.5,249.5 C 158.985,248.348 164.651,248.182 170.5,249C 169.473,249.513 168.473,250.013 167.5,250.5C 163.03,249.514 158.363,249.181 153.5,249.5 Z"/></g>
<g><path style="opacity:1" fill="#dc667a" d="M 245.5,249.5 C 240.637,249.181 235.97,249.514 231.5,250.5C 230.711,250.217 230.044,249.717 229.5,249C 235.016,248.183 240.35,248.349 245.5,249.5 Z"/></g>
<g><path style="opacity:1" fill="#5d709f" d="M 301.5,248.5 C 286.5,249.167 271.5,249.833 256.5,250.5C 255.244,250.539 254.244,250.039 253.5,249C 269.497,248.5 285.497,248.333 301.5,248.5 Z"/></g>
<g><path style="opacity:1" fill="#06236a" d="M 126.5,250.5 C 111.565,258.135 96.5653,265.468 81.5,272.5C 81.5,264.833 81.5,257.167 81.5,249.5C 96.676,249.171 111.676,249.504 126.5,250.5 Z"/></g>
<g><path style="opacity:1" fill="#ca2237" d="M 153.5,249.5 C 158.363,249.181 163.03,249.514 167.5,250.5C 144.31,261.928 121.31,273.595 98.5,285.5C 92.8333,285.5 87.1667,285.5 81.5,285.5C 105.214,272.977 129.214,260.977 153.5,249.5 Z"/></g>
<g><path style="opacity:1" fill="#c91a33" d="M 231.5,250.5 C 235.97,249.514 240.637,249.181 245.5,249.5C 263.991,259.08 282.658,268.08 301.5,276.5C 301.81,279.713 301.477,282.713 300.5,285.5C 277.69,273.595 254.69,261.928 231.5,250.5 Z"/></g>
<g><path style="opacity:1" fill="#3e558d" d="M 212.5,253.5 C 210.842,263.961 209.842,274.628 209.5,285.5C 209.5,274.5 209.5,263.5 209.5,252.5C 210.791,252.263 211.791,252.596 212.5,253.5 Z"/></g>
<g><path style="opacity:0.979" fill="#435a90" d="M 357.5,264.5 C 353.5,265.167 349.5,265.833 345.5,266.5C 344.957,266.44 344.624,266.107 344.5,265.5C 348.783,264.508 353.116,264.174 357.5,264.5 Z"/></g>
<g><path style="opacity:1" fill="#dfd9e3" d="M 365.5,264.5 C 368.977,265.323 372.644,265.823 376.5,266C 375.944,266.383 375.611,266.883 375.5,267.5C 375.167,267.5 374.833,267.5 374.5,267.5C 372.188,269.146 370.188,271.146 368.5,273.5C 369.399,276.697 370.399,279.864 371.5,283C 370.513,284.872 369.846,284.705 369.5,282.5C 369.289,280.576 368.623,280.243 367.5,281.5C 365.264,280.611 363.264,279.278 361.5,277.5C 360.817,277.863 360.15,278.196 359.5,278.5C 359.5,277.833 359.167,277.5 358.5,277.5C 359.261,276.609 360.261,275.942 361.5,275.5C 363.422,276.711 365.255,278.044 367,279.5C 367.49,277.455 367.323,275.455 366.5,273.5C 365.475,273.103 365.308,272.437 366,271.5C 371.935,267.916 371.102,266.582 363.5,267.5C 362.434,259.033 360.767,258.699 358.5,266.5C 355.753,266.187 353.086,266.52 350.5,267.5C 350.624,268.107 350.957,268.44 351.5,268.5C 356.924,270.442 357.924,273.775 354.5,278.5C 353.596,279.209 353.263,280.209 353.5,281.5C 354.167,281.5 354.833,281.5 355.5,281.5C 354.685,282.837 353.518,283.837 352,284.5C 352.263,280.396 352.93,276.396 354,272.5C 351.287,270.28 348.454,268.28 345.5,266.5C 349.5,265.833 353.5,265.167 357.5,264.5C 358.374,261.081 359.54,257.748 361,254.5C 362.806,257.775 364.306,261.109 365.5,264.5 Z M 354.5,278.5 C 354.5,278.833 354.5,279.167 354.5,279.5C 354.833,280.167 355.167,280.833 355.5,281.5C 354.833,281.5 354.167,281.5 353.5,281.5C 353.263,280.209 353.596,279.209 354.5,278.5 Z M 367.5,281.5 C 368.623,280.243 369.289,280.576 369.5,282.5C 368.833,282.167 368.167,281.833 367.5,281.5 Z"/></g>
<g><path style="opacity:0.91" fill="#445a90" d="M 365.5,264.5 C 369.5,264.5 373.5,264.5 377.5,264.5C 377.715,266.179 377.048,267.179 375.5,267.5C 375.611,266.883 375.944,266.383 376.5,266C 372.644,265.823 368.977,265.323 365.5,264.5 Z"/></g>
<g><path style="opacity:0.055" fill="#d7d1de" d="M 466.5,255.5 C 464.938,256.785 463.604,258.285 462.5,260C 463.401,262.871 464.401,265.704 465.5,268.5C 464.14,269.665 463.14,269.332 462.5,267.5C 460.973,267.573 459.973,266.906 459.5,265.5C 458.518,264.859 457.518,264.193 456.5,263.5C 454.971,264.763 453.305,265.763 451.5,266.5C 450.685,267.837 449.518,268.837 448,269.5C 447.74,266.423 448.24,263.423 449.5,260.5C 448.535,257.872 446.868,255.872 444.5,254.5C 443.624,254.631 442.957,254.298 442.5,253.5C 445.833,252.833 449.167,252.167 452.5,251.5C 453.661,249.115 454.661,246.781 455.5,244.5C 455.393,242.621 455.893,242.288 457,243.5C 457.849,246.521 458.683,249.521 459.5,252.5C 463.182,252.335 466.848,252.501 470.5,253C 469.529,254.481 468.196,255.315 466.5,255.5 Z M 466.5,255.5 C 467.463,254.637 467.463,253.97 466.5,253.5C 465.227,254.257 465.227,254.923 466.5,255.5 Z M 462.5,267.5 C 463.773,266.923 463.773,266.257 462.5,265.5C 461.537,265.97 461.537,266.637 462.5,267.5 Z"/></g>
<g><path style="opacity:1" fill="#ce3041" d="M 459.5,264.5 C 457.019,260.629 454.352,260.629 451.5,264.5C 450.777,262.836 451.11,261.169 452.5,259.5C 451.352,257.851 450.019,256.351 448.5,255C 450.473,254.505 452.473,254.338 454.5,254.5C 454.93,247.204 456.264,246.871 458.5,253.5C 460.423,254.308 462.423,254.808 464.5,255C 460.61,256.554 459.61,259.22 461.5,263C 461.164,264.03 460.497,264.53 459.5,264.5 Z"/></g>
<g><path style="opacity:1" fill="#cc293c" d="M 366.5,273.5 C 367.323,275.455 367.49,277.455 367,279.5C 365.255,278.044 363.422,276.711 361.5,275.5C 360.261,275.942 359.261,276.609 358.5,277.5C 357.395,278.6 356.062,279.267 354.5,279.5C 354.5,279.167 354.5,278.833 354.5,278.5C 357.924,273.775 356.924,270.442 351.5,268.5C 353.833,267.833 356.167,267.167 358.5,266.5C 360.767,258.699 362.434,259.033 363.5,267.5C 371.102,266.582 371.935,267.916 366,271.5C 365.308,272.437 365.475,273.103 366.5,273.5 Z"/></g>
<g><path style="opacity:0.958" fill="#eba9b3" d="M 358.5,266.5 C 356.167,267.167 353.833,267.833 351.5,268.5C 350.957,268.44 350.624,268.107 350.5,267.5C 353.086,266.52 355.753,266.187 358.5,266.5 Z"/></g>
<g><path style="opacity:0.031" fill="#e7dee6" d="M 358.5,277.5 C 359.167,277.5 359.5,277.833 359.5,278.5C 358.205,279.488 356.872,280.488 355.5,281.5C 355.167,280.833 354.833,280.167 354.5,279.5C 356.062,279.267 357.395,278.6 358.5,277.5 Z"/></g>
<g><path style="opacity:0.424" fill="#99a7c4" d="M 408.5,345.5 C 408.5,345.833 408.5,346.167 408.5,346.5C 405.5,346.5 402.5,346.5 399.5,346.5C 398.209,346.263 397.209,346.596 396.5,347.5C 395.624,347.631 394.957,347.298 394.5,346.5C 399.12,345.507 403.786,345.173 408.5,345.5 Z"/></g>
<g><path style="opacity:1" fill="#cd2d3f" d="M 420.5,362.5 C 417.868,360.887 415.202,359.22 412.5,357.5C 409.798,359.22 407.132,360.887 404.5,362.5C 404.833,361.167 405.167,359.833 405.5,358.5C 405.5,358.167 405.5,357.833 405.5,357.5C 407.138,356.295 407.471,354.962 406.5,353.5C 405.055,351.937 403.389,350.604 401.5,349.5C 401.167,349.5 400.833,349.5 400.5,349.5C 400.5,349.167 400.5,348.833 400.5,348.5C 403.5,347.833 406.5,347.167 409.5,346.5C 409.5,346.167 409.5,345.833 409.5,345.5C 410.792,343.745 411.792,341.745 412.5,339.5C 413.692,341.742 414.692,344.075 415.5,346.5C 418.447,347.321 421.447,347.821 424.5,348C 421.948,349.771 419.615,351.771 417.5,354C 418.803,356.744 419.803,359.577 420.5,362.5 Z"/></g>
<g><path style="opacity:0.425" fill="#99a7c4" d="M 416.5,345.5 C 421.179,345.334 425.845,345.501 430.5,346C 429.956,346.717 429.289,347.217 428.5,347.5C 427.791,346.596 426.791,346.263 425.5,346.5C 422.287,346.81 419.287,346.477 416.5,345.5 Z"/></g>
<g><path style="opacity:0.047" fill="#fde6e7" d="M 399.5,346.5 C 402.5,346.5 405.5,346.5 408.5,346.5C 408.833,346.5 409.167,346.5 409.5,346.5C 406.5,347.167 403.5,347.833 400.5,348.5C 400.167,348.5 399.833,348.5 399.5,348.5C 399.5,347.833 399.5,347.167 399.5,346.5 Z"/></g>
<g><path style="opacity:0.035" fill="#bacbdb" d="M 396.5,347.5 C 397.609,347.557 398.609,347.89 399.5,348.5C 399.5,348.833 399.5,349.167 399.5,349.5C 397.973,349.573 396.973,348.906 396.5,347.5 Z"/></g>
<g><path style="opacity:0.012" fill="#d6cfdc" d="M 416.5,345.5 C 419.287,346.477 422.287,346.81 425.5,346.5C 425.369,347.239 425.536,347.906 426,348.5C 426.671,347.748 427.504,347.414 428.5,347.5C 425.978,349.361 423.478,351.361 421,353.5C 421.078,357.592 421.912,361.592 423.5,365.5C 423.19,367.906 422.523,367.906 421.5,365.5C 422.833,365.167 422.833,364.833 421.5,364.5C 421.672,363.508 421.338,362.842 420.5,362.5C 419.803,359.577 418.803,356.744 417.5,354C 419.615,351.771 421.948,349.771 424.5,348C 421.447,347.821 418.447,347.321 415.5,346.5C 414.692,344.075 413.692,341.742 412.5,339.5C 411.792,341.745 410.792,343.745 409.5,345.5C 409.167,345.5 408.833,345.5 408.5,345.5C 411.157,329.51 413.824,329.51 416.5,345.5 Z M 411.5,336.5 C 411.369,337.376 411.702,338.043 412.5,338.5C 413.67,337.306 413.337,336.639 411.5,336.5 Z"/></g>
<g><path style="opacity:0.082" fill="#cfc9d8" d="M 401.5,349.5 C 403.389,350.604 405.055,351.937 406.5,353.5C 407.471,354.962 407.138,356.295 405.5,357.5C 404.167,357.833 404.167,358.167 405.5,358.5C 405.167,359.833 404.833,361.167 404.5,362.5C 403.833,362.833 403.167,363.167 402.5,363.5C 403.1,360.668 403.767,357.835 404.5,355C 403.259,353.269 402.259,351.436 401.5,349.5 Z"/></g>
<g><path style="opacity:0.018" fill="#dedae6" d="M 420.5,362.5 C 420.328,363.492 420.662,364.158 421.5,364.5C 421.5,364.833 421.5,365.167 421.5,365.5C 418.385,363.769 415.385,361.769 412.5,359.5C 409.464,361.552 406.464,363.552 403.5,365.5C 404.11,364.609 404.443,363.609 404.5,362.5C 407.132,360.887 409.798,359.22 412.5,357.5C 415.202,359.22 417.868,360.887 420.5,362.5 Z"/></g>
<g><path style="opacity:0.369" fill="#a5afc9" d="M 402.5,363.5 C 402.328,364.492 402.662,365.158 403.5,365.5C 402.698,366.885 402.031,366.718 401.5,365C 401.57,364.235 401.903,363.735 402.5,363.5 Z"/></g>
<g><path style="opacity:1" fill="#001963" d="M 81.5,286.5 C 82.4984,322.329 82.8318,358.329 82.5,394.5C 229.167,394.5 375.833,394.5 522.5,394.5C 522.5,394.833 522.5,395.167 522.5,395.5C 375.5,395.5 228.5,395.5 81.5,395.5C 81.5,359.167 81.5,322.833 81.5,286.5 Z"/></g>
<g><path style="opacity:0.558" fill="#7082aa" d="M 80.5,285.5 C 80.8333,285.5 81.1667,285.5 81.5,285.5C 81.5,285.833 81.5,286.167 81.5,286.5C 81.5,322.833 81.5,359.167 81.5,395.5C 228.5,395.5 375.5,395.5 522.5,395.5C 522.5,395.833 522.5,396.167 522.5,396.5C 375.167,396.5 227.833,396.5 80.5,396.5C 80.5,359.5 80.5,322.5 80.5,285.5 Z"/></g>
</svg>
